{"title":"Taylor_Swift_Ellen_720p_20110511_TTL","uid":6387802,"size":659377774,"categoryP":"video","categoryS":"hd___tv_shows","magnet":"?xt=urn:btih:8907c7645378494ec6caafe2b3ddb775d89a38b7&amp;dn=Taylor_Swift_Ellen_720p_20110511_TTL&amp;tr=udp%3A%2F%2Ftracker.openbittorrent.com%3A80&amp;tr=udp%3A%2F%2Fopen.demonii.com%3A1337&amp;tr=udp%3A%2F%2Ftracker.coppersurfer.tk%3A6969&amp;tr=udp%3A%2F%2Fexodus.desync.com%3A6969","seeders":0,"leechers":1,"uploader":"thetorrentlord","files":4,"time":1305261058,"description":"This includes the full segment and just the live song and an MP3 of the song. \t\t\t\t\n\n\t\t\t\t\t\t\t\t\t\t\t\t\t\n\nEnjoy and please share.                                                                   \t\t\n\n\t\t\t\t\t\t\t\t\t\t\t\t\t\n\n\t\t\t\t\t\t\t\t\t\t\t\t\t\n\n******************************************************************************************************\n\n******************************************************************************************************\t\n\n\t\t\t\t\t\t\t\t\t\t\t\t\t\n\n\t\t\t\t\t\t\t\t\t\t\t\t\t\n\n\t\t\t\t\t\t\t\t\t\t\t\t\t\n\n\t\t\t\t\t\t\t\t\t\t\t\t\t\n\nEllen_Taylor_Swift_FULL_SEGMENT_720p_20110511_TTL.avi\nFormat                           : AVI\nFormat/Info                      : Audio Video Interleave\nFile size                        : 481 MiB\nDuration                         : 14mn 39s\nOverall bit rate                 : 2 295 Kbps\nMovie name                       : Ellen_Taylor Swift_FULL_SEGMENT_720p_20110511_TTL.mpg\nDirector                         : created.with.SUPER(C).v2010.bld.37\nWriting application              : SUPER(C)   \n\nVideo\nID                               : 0\nFormat                           : MPEG-4 Visual\nFormat profile                   : Simple@L3\nFormat settings, BVOP            : No\nFormat settings, QPel            : No\nFormat settings, GMC             : No warppoints\nFormat settings, Matrix          : Default (H.263)\nCodec ID                         : XVID\nCodec ID/Hint                    : XviD\nDuration                         : 14mn 39s\nBit rate                         : 4 464 Kbps\nWidth                            : 1 280 pixels\nHeight                           : 720 pixels\nDisplay aspect ratio             : 16:9\nFrame rate                       : 29.970 fps\nColor space                      : YUV\nChroma subsampling               : 4:2:0\nBit depth                        : 8 bits\nScan type                        : Progressive\nBits/(Pixel*Frame)               : 0.162\nStream size                      : 468 MiB (97%)\nWriting library                  : XviD 1.1.2 (UTC 2006-11-01)\n\nAudio\nID                               : 1\nFormat                           : MPEG Audio\nFormat version                   : Version 2\nFormat profile                   : Layer 3\nMode                             : Joint stereo\nMode extension                   : MS Stereo\nCodec ID                         : 55\nCodec ID/Hint                    : MP3\nDuration                         : 29mn 18s\nBit rate mode                    : Constant\nBit rate                         : 112 Kbps\nChannel(s)                       : 2 channels\nSampling rate                    : 22.05 KHz\nStream size                      : 11.7 MiB (2%)\nAlignment                        : Aligned on interleaves\nInterleave, duration             : 26 ms (0.78 video frame)\nWriting library                  : LAME3.98\n\n","torrent":{"xt":"urn:btih:8907c7645378494ec6caafe2b3ddb775d89a38b7","amp;dn":"Taylor_Swift_Ellen_720p_20110511_TTL","amp;tr":["udp%3A%2F%2Ftracker.openbittorrent.com%3A80","udp%3A%2F%2Fopen.demonii.com%3A1337","udp%3A%2F%2Ftracker.coppersurfer.tk%3A6969","udp%3A%2F%2Fexodus.desync.com%3A6969"],"infoHash":"8907c7645378494ec6caafe2b3ddb775d89a38b7","infoHashBuffer":{"type":"Buffer","data":[137,7,199,100,83,120,73,78,198,202,175,226,179,221,183,117,216,154,56,183]},"announce":[],"urlList":[]}}